<!DOCTYPE svg PUBLIC "-//W3C//DTD SVG 20010904//EN" "http://www.w3.org/TR/2001/REC-SVG-20010904/DTD/svg10.dtd">
<svg version="1.0" xmlns="http://www.w3.org/2000/svg" width="480px" height="480px" viewBox="0 0 4800 4800" preserveAspectRatio="xMidYMid meet">
<g id="layer101" fill="#010100" stroke="none">
<path d="M0 2400 l0 -2400 2400 0 2400 0 0 2400 0 2400 -2400 0 -2400 0 0 -2400z"/>
</g>
<g id="layer102" fill="#db0514" stroke="none">
<path d="M1370 1573 c0 -10 19 -56 43 -103 l42 -85 950 0 950 0 42 85 c24 47 43 93 43 103 0 16 -56 17 -1035 17 -979 0 -1035 -1 -1035 -17z"/>
</g>
<g id="layer103" fill="#f6bb04" stroke="none">
<path d="M745 1800 c11 -18 137 -77 223 -104 180 -56 166 -56 1437 -56 1271 0 1257 0 1437 56 83 26 175 69 213 98 18 14 -140 15 -1648 16 -1137 0 -1666 -3 -1662 -10z"/>
<path d="M1500 1324 c0 -16 77 -108 147 -175 422 -403 1086 -405 1511 -5 65 62 152 164 152 179 0 4 -407 7 -905 7 -498 0 -905 -3 -905 -6z"/>
</g>
<g id="layer104" fill="#fefefe" stroke="none">
<path d="M544 4441 c-68 -31 -119 -121 -114 -199 3 -47 1 -49 -54 -55 -74 -7 -123 -32 -158 -81 -27 -37 -29 -47 -26 -102 6 -97 56 -150 162 -174 45 -10 55 -9 211 26 20 5 61 -31 829 -735 l288 -264 34 18 c62 33 64 39 43 145 -10 52 -21 115 -24 140 -7 45 -12 50 -482 479 -462 422 -475 435 -469 465 28 155 13 239 -54 300 -35 32 -92 56 -130 56 -8 0 -34 -9 -56 -19z"/>
<path d="M4145 4445 c-53 -19 -111 -82 -125 -136 -12 -41 -9 -129 6 -205 6 -30 -8 -43 -473 -468 l-478 -438 -18 -106 c-9 -58 -21 -120 -26 -138 -9 -32 -7 -34 39 -64 32 -21 54 -29 63 -23 12 7 777 705 1011 921 59 56 84 73 100 69 143 -34 167 -37 213 -27 107 24 169 99 161 195 -8 90 -77 151 -183 162 -30 3 -55 9 -56 12 -1 3 -3 32 -5 63 -5 94 -47 157 -121 184 -48 17 -58 16 -108 -1z"/>
<path d="M2260 3930 c-102 -14 -222 -56 -288 -101 -95 -63 -149 -142 -177 -261 -14 -59 -20 -138 -11 -138 2 0 34 13 71 30 161 72 348 110 545 110 197 0 346 -28 510 -96 128 -53 118 -53 113 3 -13 135 -50 221 -127 299 -64 64 -149 108 -259 134 -95 23 -282 33 -377 20z"/>
<path d="M2204 3505 c-146 -22 -134 -12 -134 -113 0 -48 4 -93 8 -99 6 -10 23 -10 78 1 38 8 104 17 147 21 l77 7 0 99 0 99 -47 -1 c-27 -1 -85 -7 -129 -14z"/>
<path d="M2430 3421 l0 -99 68 -7 c37 -3 102 -13 146 -21 43 -8 79 -14 81 -12 1 2 5 47 8 100 l5 96 -46 11 c-55 13 -183 30 -229 31 l-33 0 0 -99z"/>
<path d="M1955 3444 c-77 -28 -175 -77 -176 -88 -4 -36 4 -152 10 -159 4 -4 58 9 119 30 l112 38 0 66 c0 71 -9 129 -19 128 -3 0 -24 -7 -46 -15z"/>
<path d="M2786 3399 c-3 -34 -6 -78 -6 -98 l0 -36 116 -38 c64 -22 117 -37 119 -35 1 1 6 39 10 84 l7 81 -34 20 c-37 22 -182 83 -196 83 -5 0 -12 -28 -16 -61z"/>
<path d="M2272 3259 c-46 -5 -107 -15 -135 -22 l-52 -14 2 -77 c1 -43 3 -80 5 -81 2 -2 32 3 68 10 36 8 100 17 143 21 l78 7 -3 80 c-2 44 -7 81 -13 82 -5 1 -48 -2 -93 -6z"/>
<path d="M2435 3262 c-3 -3 -5 -40 -5 -82 l0 -77 78 -7 c42 -3 104 -13 137 -20 33 -8 63 -12 67 -10 5 3 8 40 8 83 l0 78 -92 16 c-109 19 -185 27 -193 19z"/>
<path d="M1916 3175 c-54 -19 -104 -40 -111 -45 -10 -8 -10 -25 1 -83 20 -106 15 -102 91 -64 38 19 85 40 107 47 35 11 38 14 32 42 -3 17 -6 55 -6 84 0 30 -3 54 -7 54 -5 -1 -53 -16 -107 -35z"/>
<path d="M2777 3203 c-4 -3 -7 -41 -7 -84 0 -72 2 -78 23 -85 12 -3 57 -22 100 -42 42 -19 80 -33 82 -30 3 3 12 40 20 83 18 91 24 82 -90 124 -110 39 -121 42 -128 34z"/>
<path d="M2255 3040 c-365 -58 -673 -278 -834 -597 -79 -156 -113 -294 -115 -463 l-1 -115 1097 -3 1097 -2 7 36 c10 56 -12 250 -41 349 -115 395 -435 696 -831 780 -94 20 -295 28 -379 15z m233 -170 c67 -41 90 -148 44 -210 -73 -98 -211 -90 -262 15 -25 51 -25 90 -1 135 40 77 145 105 219 60z m-446 -234 c113 -46 183 -127 214 -246 30 -118 -4 -237 -95 -329 -72 -74 -143 -103 -253 -103 -64 -1 -86 4 -140 29 -77 37 -138 96 -175 171 -25 51 -28 68 -28 152 1 112 19 163 86 235 76 82 148 113 264 114 51 0 85 -6 127 -23z m1000 -5 c75 -36 134 -94 170 -169 30 -61 33 -74 32 -157 0 -108 -21 -161 -93 -238 -206 -220 -576 -93 -607 210 -13 118 56 264 151 323 78 48 125 60 215 57 62 -3 98 -10 132 -26z"/>
<path d="M945 1249 c-283 -259 -364 -328 -380 -324 -114 32 -144 37 -188 31 -103 -12 -176 -77 -185 -165 -6 -63 9 -101 58 -145 35 -32 66 -43 165 -58 16 -3 19 -12 21 -67 4 -113 75 -191 172 -191 58 0 103 21 139 64 52 64 65 142 41 259 -12 55 -11 60 9 75 12 9 161 145 331 301 l310 284 -34 58 c-19 32 -49 91 -65 131 -17 40 -32 74 -33 75 -1 1 -163 -147 -361 -328z"/>
<path d="M3472 1506 c-17 -41 -47 -100 -66 -133 l-35 -58 77 -71 c42 -40 190 -175 327 -301 227 -208 250 -232 248 -259 -2 -16 -6 -63 -9 -105 -8 -90 4 -135 49 -186 56 -64 142 -81 216 -43 56 28 84 79 90 164 l6 70 69 13 c146 26 217 146 153 258 -55 98 -177 128 -320 79 -48 -16 -49 -16 -75 8 -208 190 -617 563 -653 595 l-46 43 -31 -74z"/>
</g>


</svg>